<svg width="22" height="20" viewBox="0 0 22 20" fill="none" xmlns="http://www.w3.org/2000/svg">
<path d="M0 1.50152C0 1.00286 0.401064 0.601685 0.899583 0.601685H2.60504C3.42966 0.601685 4.16057 1.0816 4.50166 1.80147H19.907C20.8928 1.80147 21.6125 2.7388 21.3539 3.69114L19.8171 9.40137C19.4985 10.5787 18.4302 11.3998 17.212 11.3998H6.39829L6.60069 12.4683C6.68315 12.892 7.05423 13.1994 7.48528 13.1994H18.2915C18.79 13.1994 19.1911 13.6006 19.1911 14.0993C19.1911 14.5979 18.79 14.9991 18.2915 14.9991H7.48528C6.18838 14.9991 5.07515 14.0768 4.83526 12.8058L2.90116 2.64507C2.87492 2.5026 2.75123 2.40136 2.60504 2.40136H0.899583C0.401064 2.40136 0 2.00019 0 1.50152ZM4.79778 17.9986C4.79778 17.7623 4.84431 17.5282 4.93473 17.3099C5.02515 17.0915 5.15767 16.8931 5.32474 16.726C5.49181 16.5589 5.69015 16.4263 5.90843 16.3359C6.12672 16.2455 6.36067 16.1989 6.59694 16.1989C6.83321 16.1989 7.06717 16.2455 7.28546 16.3359C7.50374 16.4263 7.70208 16.5589 7.86915 16.726C8.03622 16.8931 8.16874 17.0915 8.25916 17.3099C8.34957 17.5282 8.39611 17.7623 8.39611 17.9986C8.39611 18.2349 8.34957 18.469 8.25916 18.6873C8.16874 18.9056 8.03622 19.104 7.86915 19.2712C7.70208 19.4383 7.50374 19.5708 7.28546 19.6613C7.06717 19.7517 6.83321 19.7983 6.59694 19.7983C6.36067 19.7983 6.12672 19.7517 5.90843 19.6613C5.69015 19.5708 5.49181 19.4383 5.32474 19.2712C5.15767 19.104 5.02515 18.9056 4.93473 18.6873C4.84431 18.469 4.79778 18.2349 4.79778 17.9986ZM17.3919 16.1989C17.8691 16.1989 18.3267 16.3885 18.6641 16.726C19.0016 17.0635 19.1911 17.5213 19.1911 17.9986C19.1911 18.4759 19.0016 18.9337 18.6641 19.2712C18.3267 19.6087 17.8691 19.7983 17.3919 19.7983C16.9148 19.7983 16.4571 19.6087 16.1197 19.2712C15.7823 18.9337 15.5928 18.4759 15.5928 17.9986C15.5928 17.5213 15.7823 17.0635 16.1197 16.726C16.4571 16.3885 16.9148 16.1989 17.3919 16.1989Z" fill="#1E1B4B"/>
</svg>
